<svg width="24" height="24" viewBox="0 0 24 24" fill="none" xmlns="http://www.w3.org/2000/svg">
<g id="Iconly/Bold/Profile">
<g id="Profile">
<path id="Profile_2" fill-rule="evenodd" clip-rule="evenodd" d="M17.254 7.40036C17.254 10.3829 14.9029 12.8007 12.0026 12.8007C9.10242 12.8007 6.75133 10.3829 6.75133 7.40036C6.75133 4.41782 9.10242 2 12.0026 2C14.9029 2 17.254 4.41782 17.254 7.40036ZM16.5099 15.8434C18.1796 16.1815 19.2697 16.7331 19.7369 17.6228C20.0877 18.3171 20.0877 19.1437 19.7369 19.8381C19.2697 20.7278 18.2229 21.3149 16.4926 21.6174C15.7216 21.7729 14.9412 21.874 14.1568 21.9199C13.4301 22 12.7034 22 11.968 22H10.6444C10.3676 21.9644 10.0994 21.9466 9.83983 21.9466C9.0554 21.9063 8.27478 21.8082 7.50399 21.653C5.8343 21.3327 4.74424 20.7633 4.27707 19.8737C4.09673 19.529 4.00165 19.144 4.00023 18.7527C3.99647 18.3589 4.08868 17.9705 4.26842 17.6228C4.72694 16.7331 5.817 16.1548 7.50399 15.8434C8.27818 15.6915 9.06145 15.5934 9.84848 15.5498C11.2882 15.4338 12.7344 15.4338 14.1741 15.5498C14.9581 15.5955 15.7383 15.6936 16.5099 15.8434Z" fill="#868AA5"/>
</g>
</g>
</svg>
