<svg width="83" height="60" viewBox="0 0 83 60" fill="none" xmlns="http://www.w3.org/2000/svg">
<rect width="52.3098" height="8.8168" rx="4.4084" transform="matrix(-0.99996 -0.00890537 0.0144674 -0.999895 55.6471 45.1407)" fill="#5DB4F3"/>
<rect width="55.3015" height="10.3115" rx="5.15575" transform="matrix(-0.665105 0.74675 -0.876877 -0.480714 45.8232 4.95688)" fill="#5DB4F3"/>
<path d="M14.96 24.8H22.832V26.048H19.568V36H18.224V26.048H14.96V24.8ZM26.1009 32.416C26.1329 33.2053 26.3782 33.84 26.8369 34.32C27.2955 34.8 27.9355 35.04 28.7569 35.04C29.1302 35.04 29.4555 34.9973 29.7329 34.912C30.0102 34.8267 30.2449 34.7093 30.4369 34.56C30.6395 34.4107 30.7995 34.24 30.9169 34.048C31.0449 33.8453 31.1462 33.632 31.2209 33.408L32.4049 33.728C32.1809 34.464 31.7649 35.0667 31.1569 35.536C30.5595 35.9947 29.7489 36.224 28.7249 36.224C28.1595 36.224 27.6369 36.128 27.1569 35.936C26.6875 35.7333 26.2822 35.4507 25.9409 35.088C25.5995 34.7253 25.3329 34.2933 25.1409 33.792C24.9489 33.2907 24.8529 32.736 24.8529 32.128V31.744C24.8529 31.1893 24.9489 30.672 25.1409 30.192C25.3435 29.712 25.6209 29.3013 25.9729 28.96C26.3249 28.608 26.7355 28.336 27.2049 28.144C27.6849 27.9413 28.2022 27.84 28.7569 27.84C29.4075 27.84 29.9675 27.9627 30.4369 28.208C30.9169 28.4427 31.3062 28.736 31.6049 29.088C31.9142 29.44 32.1382 29.824 32.2769 30.24C32.4262 30.656 32.5009 31.04 32.5009 31.392V32.416H26.1009ZM28.7569 29.024C28.4049 29.024 28.0742 29.0827 27.7649 29.2C27.4662 29.3067 27.1995 29.4613 26.9649 29.664C26.7409 29.8667 26.5542 30.1067 26.4049 30.384C26.2662 30.6507 26.1755 30.944 26.1329 31.264H31.2529C31.2315 30.9227 31.1462 30.6133 30.9969 30.336C30.8582 30.0587 30.6715 29.824 30.4369 29.632C30.2129 29.44 29.9515 29.2907 29.6529 29.184C29.3649 29.0773 29.0662 29.024 28.7569 29.024ZM50.5426 34.656H50.3506C50.0946 35.1893 49.7373 35.584 49.2786 35.84C48.8306 36.096 48.356 36.224 47.8546 36.224C47.332 36.224 46.8466 36.1387 46.3986 35.968C45.9506 35.7867 45.556 35.5253 45.2146 35.184C44.884 34.832 44.6226 34.4053 44.4306 33.904C44.2386 33.4027 44.1426 32.8213 44.1426 32.16V31.904C44.1426 31.2533 44.2386 30.6773 44.4306 30.176C44.6226 29.6747 44.884 29.2533 45.2146 28.912C45.556 28.56 45.9506 28.2933 46.3986 28.112C46.8466 27.9307 47.3213 27.84 47.8226 27.84C48.3666 27.84 48.8573 27.9627 49.2946 28.208C49.7426 28.4427 50.0946 28.8107 50.3506 29.312H50.5426V28.064H51.7906V34.368C51.7906 34.688 51.9346 34.848 52.2226 34.848H52.6226V36H51.7746C51.412 36 51.1133 35.8827 50.8786 35.648C50.6546 35.4133 50.5426 35.1147 50.5426 34.752V34.656ZM47.9826 35.04C48.356 35.04 48.6973 34.9707 49.0066 34.832C49.3266 34.6933 49.5986 34.496 49.8226 34.24C50.0466 33.984 50.2226 33.68 50.3506 33.328C50.4786 32.9653 50.5426 32.5653 50.5426 32.128V31.936C50.5426 31.5093 50.4786 31.12 50.3506 30.768C50.2226 30.4053 50.0413 30.096 49.8066 29.84C49.5826 29.584 49.3106 29.3867 48.9906 29.248C48.6813 29.0987 48.3453 29.024 47.9826 29.024C47.6093 29.024 47.268 29.0933 46.9586 29.232C46.6493 29.3707 46.3773 29.568 46.1426 29.824C45.9186 30.0693 45.7426 30.3733 45.6146 30.736C45.4866 31.088 45.4226 31.4773 45.4226 31.904V32.16C45.4226 33.0667 45.6573 33.776 46.1266 34.288C46.6066 34.7893 47.2253 35.04 47.9826 35.04ZM62.2115 36H60.9635V30.304C60.9635 29.9307 60.8782 29.6267 60.7075 29.392C60.5368 29.1467 60.2648 29.024 59.8915 29.024C59.5395 29.024 59.2515 29.1573 59.0275 29.424C58.8142 29.68 58.7075 30.08 58.7075 30.624V36H57.4595V30.24C57.4595 29.888 57.3635 29.6 57.1715 29.376C56.9795 29.1413 56.7235 29.024 56.4035 29.024C56.0195 29.024 55.7208 29.1627 55.5075 29.44C55.3048 29.7173 55.2035 30.08 55.2035 30.528V36H53.9555V28.064H55.2035V28.928H55.3955C55.5342 28.5547 55.7368 28.2827 56.0035 28.112C56.2702 27.9307 56.5848 27.84 56.9475 27.84C57.3315 27.84 57.6462 27.9413 57.8915 28.144C58.1475 28.3467 58.3235 28.608 58.4195 28.928H58.6115C58.9742 28.2027 59.5502 27.84 60.3395 27.84C60.9368 27.84 61.3955 28.032 61.7155 28.416C62.0462 28.7893 62.2115 29.28 62.2115 29.888V36Z" fill="#29323A"/>
<rect width="57.7298" height="10.2163" rx="5.10813" transform="matrix(0.0024509 -0.999997 0.999999 0.00150855 33.2504 59.0456)" fill="#5DB4F3"/>
<circle cx="66.5" cy="35.5" r="2.5" fill="#FFF500"/>
<rect x="49.0147" y="1.54422" width="2.25336" height="19.1699" rx="1.12668" fill="#F16E6E"/>
<rect x="60.2815" y="1.54422" width="2.25336" height="19.1699" rx="1.12668" fill="#FFF500"/>
<rect x="52.958" y="1.54422" width="2.25336" height="19.1699" rx="1.12668" fill="#7CF55D"/>
<rect x="56.3381" y="1.54422" width="2.25336" height="19.1699" rx="1.12668" fill="#2397EB"/>
</svg>
